<?xml version="1.0" encoding="utf-8"?><!-- Uploaded to: SVG Repo, www.svgrepo.com, Generator: SVG Repo Mixer Tools -->
<svg width="800px" height="800px" viewBox="0 0 960 960" fill="none" xmlns="http://www.w3.org/2000/svg">
<path d="M722.54 528.775C724.607 604.701 753.218 844.478 640.513 845.286C509.274 844.88 379.277 825.868 248.691 815.888C233.111 815.233 225.894 810.116 220.62 795.28C220.222 794.16 219.831 792.617 218.962 792.146C205.911 785.069 203.539 772.263 202.964 759.593C199.145 692.539 206.086 627.073 209.605 559.924C175.978 575.717 133.671 604.481 100.741 571.888C68.045 520.952 45.003 459.775 40.166 398.906C36.377 346.921 98.434 309.458 126.458 270.028C153.571 238.979 179.906 207.25 207.029 176.21C236.79 145.03 276.696 118.105 320.898 116.666C331.549 116.002 342.211 114.886 352.856 115.01C361.614 115.077 370.526 119.929 379.371 119.402C447.612 113.285 516.167 124.604 584.515 125.594C594.71 125.694 601.509 135.762 611.715 134.075C636.669 132.87 662.008 131.353 685.818 141.316C701.919 139.628 711.142 150.853 721.194 160.298C781.847 218.312 844.598 274.243 903.817 333.704C918.57 349.275 923.136 367.965 915.015 387.362C889.218 441.274 845.358 484.45 810.203 532.326C785.466 566.521 749.807 553.046 722.54 528.775ZM291.049 177.956C257.632 257.087 273.852 344.357 266.036 427.659C262.15 487.109 257.731 546.525 253.878 605.978C252.076 634.472 250.583 662.984 248.735 691.474C248.397 696.692 249.736 698.976 255.33 699.517C379.358 713.519 504.239 717.555 628.553 728.744C641.399 729.665 654.366 729.07 667.273 728.854C670.503 728.8 674.337 728.846 674.808 723.692C684.772 639.856 674.753 554.938 671.615 470.851C664.566 383.738 668.702 297.709 672.246 210.297C620.78 338.914 419.083 385.712 338.194 261.551C322.234 233.149 305.563 207.556 291.049 177.956ZM226.798 224.144C200.772 255.751 168.196 292.284 140.132 325.656C137.396 334.578 144.856 344.523 146.566 353.477C163.609 405.324 181.529 456.663 197.142 509.006C203.873 505.47 215.004 508.481 214.253 498.628C218.519 407.304 222.96 315.344 226.798 224.144ZM721.799 458.221C722.565 457.994 723.33 457.768 724.096 457.541C755.644 410.688 787.193 363.836 818.476 317.377C786.457 286.221 754.208 254.84 720.868 222.398C717.841 301.579 711.843 380.439 721.799 458.221ZM664.447 772.385C525.038 763.039 387.086 753.792 248.607 744.508C249.714 752.202 250.828 759.943 251.831 766.909C364.398 778.902 475.1 790.738 587.858 796.099C605.459 797.032 623.102 797.695 640.715 797.509C654.77 797.24 659.018 783.334 664.447 772.385ZM559.968 175.503C506.196 172.605 453.08 169.742 398.809 166.817C414.216 218.889 509.129 257.694 544.895 208.927C550.336 198.12 554.884 186.863 559.968 175.503ZM323.504 158.413C339.233 190.352 360.813 220.646 379.409 251.466C384.626 259.557 392.166 267.441 400.506 272.002C489.917 326.245 606.945 278.4 642.411 182.046C637.907 182.046 635.132 182.437 632.503 181.98C605.683 177.002 601.691 209.594 591.373 226.989C580.739 249.905 563.35 265.47 539.337 272.8C453.353 301.969 360.026 244.039 340.605 156.383C335.545 156.984 329.684 157.68 323.504 158.413ZM104.519 367.005C65.739 400.919 115.706 476.95 127.32 517.848C136.046 540.986 140.606 541.614 161.787 528.237C144.816 473.938 128.941 419.25 104.519 367.005ZM851.372 347.34C817.448 391.863 786.537 440.511 753.753 486.503C750.951 493.939 766.04 499.884 771.138 505.763C802.676 462.292 839.245 422.646 869.065 377.881C878.672 364.353 858.834 356.366 851.372 347.34Z" fill="#000000"/>
<path d="M291.05 177.957C305.546 207.543 322.239 233.162 338.201 261.553C419.111 385.711 620.764 338.915 672.248 210.297C668.705 297.701 664.57 383.742 671.615 470.851C674.759 554.94 684.769 639.854 674.813 723.692C677.465 733.162 634.936 728.116 628.555 728.744C504.241 717.555 379.36 713.519 255.331 699.519C249.737 698.977 248.398 696.694 248.736 691.476C250.584 662.986 252.077 634.472 253.879 605.979C257.732 546.527 262.151 487.111 266.039 427.661C273.847 344.351 257.637 257.097 291.05 177.957Z" fill="white"/>
<path d="M226.793 224.145C222.955 315.348 218.514 407.303 214.249 498.629C214.997 508.496 203.873 505.45 197.138 509.007C181.525 456.666 163.604 405.324 146.564 353.478C144.842 344.526 137.4 334.578 140.125 325.657C168.171 292.308 200.79 255.717 226.793 224.145Z" fill="white"/>
<path d="M721.802 458.22C711.845 380.42 717.844 301.598 720.871 222.398C754.211 254.84 786.46 286.22 818.479 317.377C787.196 363.836 755.648 410.688 724.099 457.541C723.334 457.767 722.568 457.993 721.802 458.22Z" fill="white"/>
<path d="M664.449 772.385C659.021 783.327 654.791 797.246 640.717 797.508C623.104 797.694 605.461 797.032 587.86 796.099C475.096 790.737 364.408 778.903 251.833 766.909C250.83 759.943 249.717 752.202 248.609 744.508C387.088 753.791 525.041 763.039 664.449 772.385Z" fill="white"/>
<path d="M559.971 175.502C554.888 186.862 550.339 198.118 544.896 208.924C509.116 257.675 414.269 218.928 398.812 166.816C453.083 169.742 506.198 172.604 559.971 175.502Z" fill="white"/>
<path d="M323.5 158.412C329.681 157.679 335.542 156.983 340.603 156.383C365.961 283.071 559.97 339.841 605.297 197.361C612.642 179.81 625.47 181.356 642.409 182.046C606.935 278.397 489.914 326.251 400.502 271.998C392.163 267.441 384.624 259.557 379.409 251.465C360.808 220.647 339.228 190.349 323.5 158.412Z" fill="white"/>
<path d="M104.523 367.004C128.946 419.249 144.82 473.939 161.785 528.239C140.6 541.608 136.054 540.985 127.327 517.846C115.709 476.848 65.7371 401.083 104.523 367.004Z" fill="white"/>
<path d="M851.37 347.34C858.84 356.334 878.664 364.376 869.063 377.881C839.242 422.647 802.675 462.29 771.136 505.763C766.046 499.961 750.945 493.838 753.751 486.505C786.532 440.516 817.45 391.859 851.37 347.34Z" fill="white"/>
</svg>