<?xml version="1.0" encoding="utf-8"?>
<!-- Uploaded to: SVG Repo, www.svgrepo.com, Generator: SVG Repo Mixer Tools -->
<!DOCTYPE svg PUBLIC "-//W3C//DTD SVG 1.1//EN" "http://www.w3.org/Graphics/SVG/1.1/DTD/svg11.dtd">
<svg fill="#000000" width="800px" height="800px" viewBox="0 0 1000 1000" version="1.1" xmlns="http://www.w3.org/2000/svg" xmlns:xlink="http://www.w3.org/1999/xlink"  enable-background="new 0 0 1000 1000" xml:space="preserve">

<g>
<g transform="translate(0.000000,511.000000) scale(0.100000,-0.100000)">
<path d="M3185,4463.9c-23.8-7.9-313.8-170.8-645.5-359.5c-494.6-280.1-623.7-363.5-715.1-456.8c-427-433-808.4-1400.3-1058.7-2689.4C515.4-329,161.9-2827.7,106.3-3695.7c-11.9-184.7-9.9-194.6,33.8-236.4c37.7-33.8,186.7-73.5,693.2-186.7c355.5-77.5,671.4-143,701.1-143c115.2-2,133.1,41.7,349.6,858.1c202.6,756.8,236.4,873.9,238.4,816.3c0-15.9-25.8-294-57.6-615.7s-59.6-623.7-59.6-669.4c0-156.9-236.4-145,2957.5-145c2081.6,0,2854.3,6,2890,21.8c65.5,31.8,89.4,105.3,79.5,258.2c-4,69.5-21.9,345.6-37.7,613.8c-17.9,268.1-35.8,540.3-41.7,605.8c-7.9,65.5-7.9,115.2-2,109.2c7.9-5.9,115.2-399.2,242.3-874c196.7-734.9,238.3-870,280.1-909.7c27.8-23.8,65.6-43.7,83.4-43.7c79.5,2,1356.6,296,1386.4,319.8c65.6,53.6,69.5,115.2,37.7,542.3c-119.2,1626.7-411.2,3646.8-685.3,4739.2c-270.1,1076.6-635.6,1887-1030.9,2282.2c-123.1,125.1-164.9,149-780.6,456.8l-647.5,323.8L6510,4324.9c-123.2-57.6-303.9-129.1-399.2-162.9c-854.1-286-1803.5-212.5-2629.8,204.6c-127.1,65.5-236.4,117.2-242.3,115.2C3232.6,4481.8,3208.8,4473.8,3185,4463.9z M3157.2,3993.1c107.3-206.6,286-452.9,448.9-621.7c377.4-391.3,786.6-584,1289.1-609.8c675.3-31.8,1257.3,319.8,1771.8,1070.6l131.1,192.7l439-220.5c242.3-121.2,440.9-220.5,444.9-224.4c4-2-25.8-59.6-65.5-125.1c-137.1-234.4-246.3-536.3-313.8-868c-39.7-194.7-43.7-274.1-41.7-754.8c0-294,15.9-758.8,33.8-1032.9c65.5-953.4,154.9-2173,242.3-3327c49.7-637.6,89.4-1163.9,89.4-1165.9c0-4-1195.7-5.9-2657.6-5.9H2311l73.5,661.4c260.2,2318,373.4,3622.9,389.3,4522.7c9.9,502.5,6,651.5-23.8,874c-61.6,484.6-186.7,881.9-359.5,1142.1c-59.6,91.4-69.5,117.2-45.7,131.1c15.9,7.9,188.7,113.2,385.3,234.4c196.6,119.2,361.5,218.5,367.5,218.5C3103.5,4086.5,3129.4,4044.8,3157.2,3993.1z M3842.4,3866c411.2-147,1130.2-228.4,1585-180.8c228.4,23.8,542.3,91.4,764.7,164.9c69.5,23.8,131.1,35.7,137.1,29.8c21.8-21.9-272.1-345.6-425.1-468.8c-168.8-137-405.2-260.2-591.9-307.9c-252.3-63.6-641.6-25.8-895.8,91.4c-250.3,113.2-585.9,405.2-760.7,661.4C3578.3,3967.3,3564.3,3965.3,3842.4,3866z M2120.3,3307.9c152.9-268.1,252.3-564.1,315.8-939.5c53.6-319.8,47.7-1271.2-9.9-2035.9l-43.7-566.1l-490.6-1837.3c-268.1-1011-492.6-1841.3-496.6-1845.2c-7.9-11.9-945.5,198.6-965.3,216.5c-9.9,7.9,2,149,23.8,309.8c23.8,162.9,83.4,661.4,131.1,1110.3c236.4,2129.3,496.6,3615,784.6,4479c158.9,474.7,369.4,903.7,562.1,1146.1c45.7,57.6,89.4,103.3,95.3,105.3C2032.9,3450.9,2074.6,3385.4,2120.3,3307.9z M8049.3,3297.9c429-566.1,810.4-1666.5,1054.7-3048.9c139-782.6,248.3-1640.6,329.7-2588.1c21.8-262.2,59.6-681.3,81.4-929.6c21.9-250.3,37.8-458.8,31.8-462.8c-11.9-13.9-967.3-192.7-973.3-184.7c-4,4-206.6,834.2-448.9,1843.3L7683.9-239.6l-47.7,709.1c-77.5,1142.1-89.4,1457.9-69.5,1720.1c27.8,359.5,73.5,574,186.7,872c59.6,154.9,164.9,349.6,190.7,349.6C7954,3411.2,8001.7,3359.5,8049.3,3297.9z"/>
</g>
</g>
</svg>